# xmcd
#
# Track frame offsets:
#	150
#	14101
#	27373
#	40328
#	54937
#	67596
#	82021
#	94833
#	113986
#	129663
#	145291
#	159368
#	177218
#	192025
#	209917
#	221062
#	238543
#	253662
#	268235
#	285377
#
# Disc length: 3968 seconds
#
# Revision: 0
# Processed by: cddbd v1.5.2PL0 Copyright (c) Steve Scherf et al.
# Submitted via: dBpowerAMP V4.0
#
DISCID=2a0f7e14
DTITLE=João Mineiro and Mariano - Série 20 Super Sucessos
DYEAR=2009
DGENRE=Sertanejo
TTITLE0=Ainda Ontem Chorei De Saudade
TTITLE1=Esta Noite Como Lembranca
TTITLE2=Liguei Pra Dizer Que Te Amo
TTITLE3=No Dia Em Que Eu Saí De Casa
TTITLE4=Aline
TTITLE5=No Mesmo Lugar  (Coisa Estranha)
TTITLE6=Faz De Conta
TTITLE7=Nosso Juramento
TTITLE8=Se Eu Não Puder Te Esquecer
TTITLE9=Seu Amor Ainda É Tudo
TTITLE10=Minha Serenata
TTITLE11=Pai, Amigo Pai
TTITLE12=A Bailarina
TTITLE13=Sonho De Peão
TTITLE14=Amor Tem Que Ser Assim
TTITLE15=Naquela Noite
TTITLE16=Viola Está Chorando
TTITLE17=Eu E Minha Viola
TTITLE18=A Quase Cem Por Hora
TTITLE19=O Firim Fim Fim
EXTD=
EXTT0=
EXTT1=
EXTT2=
EXTT3=
EXTT4=
EXTT5=
EXTT6=
EXTT7=
EXTT8=
EXTT9=
EXTT10=
EXTT11=
EXTT12=
EXTT13=
EXTT14=
EXTT15=
EXTT16=
EXTT17=
EXTT18=
EXTT19=
PLAYORDER=
